<svg width="364" height="444" viewBox="0 0 364 444" fill="none" xmlns="http://www.w3.org/2000/svg">
<g filter="url(#filter0_d_2411_938)">
<mask id="mask0_2411_938" style="mask-type:luminance" maskUnits="userSpaceOnUse" x="8" y="4" width="348" height="428">
<path d="M344 4H20C13.3726 4 8 9.37258 8 16V420C8 426.627 13.3726 432 20 432H344C350.627 432 356 426.627 356 420V16C356 9.37258 350.627 4 344 4Z" fill="white"/>
</mask>
<g mask="url(#mask0_2411_938)">
<path d="M344 4H20C13.3726 4 8 9.37258 8 16V420C8 426.627 13.3726 432 20 432H344C350.627 432 356 426.627 356 420V16C356 9.37258 350.627 4 344 4Z" fill="white"/>
<path d="M16.3576 329.766C29.7369 333.317 42.6476 338.965 54.2882 346.462C77.7051 361.555 95.3881 383.937 105.315 409.906C108.052 417.058 110.148 424.444 111.567 431.966C112.294 435.826 112.787 439.686 113.046 443.607C113.059 443.841 113.059 444.076 113.059 444.31H105.191C104.797 441.585 104.316 438.872 103.835 436.159C102.676 429.722 101.023 423.372 98.8902 417.181C94.7222 405.047 88.6059 393.592 80.9729 383.295C65.522 362.443 43.3136 347.165 18.5156 339.643C11.7088 337.584 4.69231 336.005 -2.37345 335.167C-3.24897 335.056 -4.12449 335.006 -5 334.932V325.955C-4.79037 325.98 -4.58073 325.992 -4.3711 326.017C2.62068 326.732 9.5631 327.953 16.3576 329.766Z" fill="#FEF7F5"/>
<path d="M-5 427.897C-1.96653 429.352 0.82029 431.251 3.37284 433.434C6.75158 436.344 9.9577 440.08 11.869 444.285H3.32354C1.90546 442.436 0.0804396 440.537 -1.84322 438.934C-2.65708 438.255 -3.77921 437.454 -5 436.689V427.897Z" fill="#FEF7F5"/>
<path d="M84.316 439.932C82.861 434.778 81.0853 429.685 78.989 424.74C74.9197 415.171 69.605 406.059 63.2667 397.821C56.7805 389.399 49.0612 381.742 40.5033 375.403C31.6496 368.843 21.9203 363.689 11.8457 359.299C6.50628 356.968 0.698342 355.427 -4.98633 354.144V345.636C0.168102 346.733 5.26084 348.139 10.2427 349.865C15.804 351.801 21.2914 353.799 26.5691 356.438C31.7852 359.052 36.8287 362.024 41.6379 365.341C60.6279 378.449 75.9185 396.625 85.4998 417.625C88.1633 423.47 90.4323 429.488 92.1833 435.666C92.9849 438.514 93.6754 441.387 94.2797 444.285H85.4628C85.1052 442.843 84.723 441.387 84.316 439.932Z" fill="#FEF7F5"/>
<path d="M40.3554 439.353C37.6055 432.706 34.0048 426.38 29.7259 420.597C21.353 409.265 9.89737 400.386 -2.86541 394.517C-3.56829 394.196 -4.28346 393.912 -4.98633 393.616V383.85C-4.0245 384.208 -3.06273 384.565 -2.11322 384.96C5.10051 387.969 11.932 391.73 18.1839 396.428C30.6878 405.812 40.7993 418.143 47.2362 432.41C48.9749 436.282 50.4547 440.253 51.6508 444.322H42.2421C41.6502 442.633 41.0213 440.98 40.3554 439.353Z" fill="#FEF7F5"/>
<path d="M60.7142 432.065C56.9532 423.261 52.0823 414.777 46.2127 407.205C34.1898 391.718 17.6537 379.732 -0.830733 373.159C-2.19949 372.666 -3.59291 372.222 -4.98633 371.803V362.813C-4.0245 363.097 -3.06273 363.368 -2.11322 363.676C8.09699 366.981 17.925 371.63 26.8405 377.611C44.0918 389.177 58.3836 405.639 66.7565 424.716C69.1241 430.117 71.245 435.69 72.7001 441.412C72.9467 442.374 73.144 443.336 73.3536 444.31H65.0548C63.7846 440.154 62.4159 436.048 60.7142 432.065Z" fill="#FEF7F5"/>
<path d="M19.798 311.602C35.2119 314.561 50.2066 320.184 63.7956 328.052C91.4544 344.07 112.356 369.657 123.429 399.548C126.45 407.686 128.695 416.109 130.113 424.679C130.853 429.155 131.432 433.668 131.728 438.194C131.851 440.154 132.012 442.226 131.999 444.285H124.021C123.947 442.917 123.898 441.535 123.787 440.167C123.479 436.591 123.146 433.015 122.578 429.476C121.407 422.102 119.631 414.814 117.264 407.736C112.59 393.715 105.512 380.459 96.5719 368.695C78.5191 344.945 52.1673 328.508 23.226 321.664C15.0628 319.74 6.76394 318.581 -1.60893 318.248C-2.74339 318.199 -3.87786 318.211 -5 318.199V309C-4.75338 309 -4.5068 309 -4.2725 309C3.80442 309.185 11.869 310.085 19.798 311.602Z" fill="#FEF7F5"/>
<path d="M22.2149 442.855C19.4404 437.01 15.704 431.732 10.9935 427.293C6.46796 423.014 0.91891 419.635 -4.9014 417.453C-4.9384 417.44 -4.96301 417.428 -5 417.416V408.093C0.08044 409.968 4.95124 412.446 9.3165 415.64C18.8115 422.582 26.1485 432.028 30.2055 443.089C30.3535 443.496 30.4891 443.903 30.6247 444.31H22.8561C22.6588 443.817 22.4492 443.336 22.2149 442.855Z" fill="#FEF7F5"/>
<g opacity="0.3">
<path d="M339.474 96.2818C329.122 93.4209 319.133 88.8714 310.126 82.8318C292.008 70.6732 278.326 52.644 270.646 31.7241C268.528 25.9627 266.906 20.0125 265.809 13.9531C265.246 10.8439 264.864 7.7348 264.664 4.57595C264.654 4.38722 264.654 4.1985 264.654 4.00977H270.741C271.047 6.20506 271.419 8.39041 271.791 10.5757C272.688 15.761 273.966 20.8768 275.617 25.8634C278.842 35.6379 283.574 44.8661 289.48 53.1605C301.434 69.958 318.618 82.2656 337.804 88.3251C343.071 89.984 348.5 91.2554 353.967 91.9309C354.644 92.0203 355.322 92.0601 355.999 92.1197V99.3509C355.837 99.3309 355.675 99.3219 355.512 99.3019C350.103 98.7155 344.731 97.7321 339.474 96.2818Z" fill="#FDE4DE"/>
<path d="M355.999 17.2216C353.652 16.0494 351.496 14.5197 349.521 12.7615C346.907 10.4172 344.426 7.40733 342.947 4.02002H349.559C350.656 5.51004 352.068 7.03979 353.557 8.33114C354.186 8.87748 355.055 9.52312 355.999 10.139V17.2216Z" fill="#FDE4DE"/>
<path d="M286.896 7.52653C288.021 11.6787 289.395 15.7812 291.017 19.7646C294.166 27.4729 298.278 34.8138 303.182 41.4494C308.2 48.2339 314.173 54.4026 320.794 59.5084C327.645 64.793 335.174 68.9452 342.967 72.4815C347.1 74.3589 351.592 75.6006 355.991 76.6337V83.4878C352.003 82.6037 348.062 81.4713 344.208 80.0807C339.905 78.5211 335.659 76.9119 331.576 74.7861C327.54 72.6802 323.638 70.2862 319.917 67.6141C305.224 57.0548 293.393 42.4129 285.98 25.4962C283.919 20.7877 282.164 15.9402 280.809 10.9635C280.189 8.6689 279.655 6.35438 279.188 4.02002H286.008C286.285 5.19217 286.581 6.36432 286.896 7.52653Z" fill="#FDE4DE"/>
<path d="M320.907 8.00319C323.035 13.3573 325.821 18.4532 329.132 23.112C335.61 32.2409 344.473 39.393 354.348 44.1213C354.892 44.3796 355.445 44.608 355.989 44.8464V52.7138C355.245 52.4257 354.501 52.1376 353.766 51.8197C348.185 49.396 342.899 46.3663 338.062 42.5816C328.388 35.0222 320.564 25.0888 315.584 13.5957C314.229 10.4766 313.093 7.27805 312.168 4H319.448C319.906 5.36089 320.392 6.69197 320.907 8.00319Z" fill="#FDE4DE"/>
<path d="M305.156 13.874C308.066 20.9665 311.835 27.8008 316.376 33.8999C325.679 46.3764 338.473 56.0317 352.775 61.3262C353.834 61.7236 354.912 62.0812 355.99 62.4189V69.6604C355.246 69.4319 354.502 69.2134 353.767 68.9651C345.867 66.3029 338.263 62.558 331.365 57.7502C318.018 48.4326 306.96 35.1714 300.481 19.8043C298.65 15.4534 297.008 10.9635 295.883 6.35439C295.692 5.57958 295.539 4.80476 295.377 4.02002H301.798C302.781 7.34773 303.84 10.6655 305.156 13.874Z" fill="#FDE4DE"/>
<path d="M336.813 110.904C324.887 108.52 313.285 103.99 302.771 97.6529C281.371 84.7493 265.199 64.1374 256.631 40.0586C254.294 33.5025 252.557 26.718 251.46 19.8142C250.888 16.2084 250.439 12.5727 250.21 8.92716C250.115 7.34773 249.991 5.67891 250.001 4.02002H256.173C256.231 5.13257 256.269 6.23518 256.355 7.33779C256.593 10.2185 256.851 13.0992 257.29 15.9501C258.196 21.8903 259.57 27.761 261.402 33.4628C265.018 44.7572 270.494 55.4357 277.412 64.9122C291.379 84.0441 311.768 97.2854 334.161 102.798C340.477 104.348 346.898 105.282 353.376 105.55C354.254 105.59 355.132 105.58 356 105.59V113C355.809 113 355.618 113 355.437 113C349.188 112.861 342.948 112.136 336.813 110.904Z" fill="#FDE4DE"/>
<path d="M334.943 5.18191C337.09 9.89034 339.981 14.1419 343.626 17.7179C347.127 21.1648 351.421 23.8866 355.924 25.6448C355.952 25.6548 355.972 25.6647 356 25.6746V33.1843C352.069 31.6744 348.301 29.6778 344.923 27.1051C337.577 21.5125 331.9 13.9035 328.761 4.99317C328.646 4.66537 328.542 4.33757 328.438 4.00977H334.447C334.6 4.40711 334.762 4.7945 334.943 5.18191Z" fill="#FDE4DE"/>
</g>
</g>
</g>
<defs>
<filter id="filter0_d_2411_938" x="0" y="0" width="364" height="444" filterUnits="userSpaceOnUse" color-interpolation-filters="sRGB">
<feFlood flood-opacity="0" result="BackgroundImageFix"/>
<feColorMatrix in="SourceAlpha" type="matrix" values="0 0 0 0 0 0 0 0 0 0 0 0 0 0 0 0 0 0 127 0" result="hardAlpha"/>
<feOffset dy="4"/>
<feGaussianBlur stdDeviation="4"/>
<feComposite in2="hardAlpha" operator="out"/>
<feColorMatrix type="matrix" values="0 0 0 0 0 0 0 0 0 0 0 0 0 0 0 0 0 0 0.25 0"/>
<feBlend mode="normal" in2="BackgroundImageFix" result="effect1_dropShadow_2411_938"/>
<feBlend mode="normal" in="SourceGraphic" in2="effect1_dropShadow_2411_938" result="shape"/>
</filter>
</defs>
</svg>
